<svg width="80" height="40" viewBox="0 0 80 40" fill="none" xmlns="http://www.w3.org/2000/svg">
<path d="M14.8968 28.561C16.6609 28.561 18.0094 29.0625 18.9423 30.0655C19.8922 31.0684 20.3672 32.4172 20.3672 34.1119C20.3672 37.8298 18.5437 39.6887 14.8968 39.6887H9.7827V21.5316H19.3749V24.5146H12.9122V28.561H14.8968ZM14.6678 36.6539C16.3132 36.6539 17.1359 35.8066 17.1359 34.1119C17.1359 33.2646 16.9153 32.6248 16.4743 32.1924C16.0503 31.7601 15.4481 31.544 14.6678 31.544H12.9122V36.6539H14.6678Z" fill="#249D6A"/>
<path d="M25.8824 36.6798H31.9634V39.6887H22.7529V21.5316H31.709V24.5405H25.8824V29.0279H31.2255V31.9331H25.8824V36.6798Z" fill="#249D6A"/>
<path d="M35.7505 21.5316H45.19V39.6887H42.0605V24.5405H38.7528C38.4814 29.7974 38.2015 33.3597 37.9132 35.2273C37.6418 37.0603 37.1075 38.314 36.3102 38.9884C35.513 39.6455 34.3766 39.9741 32.9008 39.9741V37.0949C33.4606 37.0949 33.8931 36.9133 34.1984 36.5501C34.5038 36.1697 34.7412 35.4694 34.9109 34.4491C35.1653 32.9101 35.4452 28.6042 35.7505 21.5316Z" fill="#249D6A"/>
<path d="M53.6583 40C51.8942 40 50.5118 39.4553 49.511 38.3659C48.5272 37.2764 48.0353 35.772 48.0353 33.8525V27.3678C48.0353 25.4484 48.5272 23.9439 49.511 22.8545C50.5118 21.7651 51.8942 21.2204 53.6583 21.2204C55.4054 21.2204 56.7709 21.7651 57.7547 22.8545C58.7555 23.9439 59.2558 25.4484 59.2558 27.3678V33.8525C59.2558 35.772 58.7555 37.2764 57.7547 38.3659C56.7709 39.4553 55.4054 40 53.6583 40ZM53.6583 36.9133C55.2358 36.9133 56.0245 35.893 56.0245 33.8525V27.3678C56.0245 25.3273 55.2358 24.3071 53.6583 24.3071C52.0638 24.3071 51.2666 25.3273 51.2666 27.3678V33.8525C51.2666 35.893 52.0638 36.9133 53.6583 36.9133Z" fill="#249D6A"/>
<path d="M65.2402 36.6798H71.3212V39.6887H62.1107V21.5316H71.0668V24.5405H65.2402V29.0279H70.5833V31.9331H65.2402V36.6798Z" fill="#249D6A"/>
<path d="M7.35366 16.416C7.20011 17.1272 6.75676 17.7001 6.02361 18.1348C5.29047 18.5694 4.58277 18.6789 3.90053 18.4633C3.21402 18.2402 2.63626 17.7176 2.16726 16.8954L0.529997 14.0253C0.0609904 13.2031 -0.09674 12.4365 0.0568054 11.7253C0.206087 11.0067 0.647302 10.43 1.38045 9.99535C2.1136 9.56068 2.82343 9.4549 3.50993 9.67801C4.19218 9.89365 4.7678 10.4126 5.23681 11.2347L6.87407 14.1048C7.34307 14.927 7.50294 15.6974 7.35366 16.416ZM5.39046 17.0248C5.78636 16.7901 6.01233 16.4811 6.06838 16.0978C6.12444 15.7145 6.01176 15.2762 5.73036 14.7829L4.0931 11.9128C3.81169 11.4195 3.49374 11.1029 3.13923 10.963C2.78471 10.8231 2.40951 10.8705 2.01361 11.1053C1.20715 11.5834 1.09385 12.3307 1.67371 13.3472L3.31097 16.2173C3.89083 17.2338 4.58399 17.503 5.39046 17.0248Z" fill="#249D6A"/>
<path d="M13.9488 13.9705L12.6602 14.5902L9.98885 12.1608L10.1174 15.813L8.8287 16.4327L8.78007 11.2507L5.14464 8.16641L6.4218 7.55225L8.88167 9.76787L8.7575 6.42906L10.0347 5.8149L10.0572 10.6366L13.9488 13.9705Z" fill="#249D6A"/>
<path d="M18.3336 11.7465C18.0653 12.4213 17.534 12.9104 16.7398 13.2136C15.9455 13.5169 15.2298 13.5039 14.5927 13.1747C13.9526 12.8374 13.469 12.2235 13.1418 11.3328L11.9996 8.22353C11.6724 7.33285 11.6429 6.55008 11.9112 5.87522C12.1766 5.19226 12.7064 4.69916 13.5006 4.39592C14.2948 4.09269 15.012 4.10971 15.6521 4.44698C16.2893 4.77615 16.7714 5.38608 17.0986 6.27675L18.2408 9.38602C18.568 10.2767 18.5989 11.0635 18.3336 11.7465ZM16.2981 12.0112C16.727 11.8475 17.0006 11.5814 17.1188 11.2131C17.2371 10.8448 17.1981 10.3935 17.0018 9.85907L15.8596 6.7498C15.6633 6.21539 15.4019 5.84895 15.0754 5.65045C14.7489 5.45196 14.3712 5.43459 13.9423 5.59834C13.0686 5.9319 12.8341 6.64928 13.2386 7.75048L14.3808 10.8598C14.7853 11.961 15.4244 12.3448 16.2981 12.0112Z" fill="#249D6A"/>
<path d="M21.6958 2.04196L22.0327 3.2387L20.2474 3.76108L22.3672 11.2906L21.1078 11.6591L18.988 4.1296L17.2149 4.6484L16.878 3.45166L21.6958 2.04196Z" fill="#249D6A"/>
<path d="M26.6404 1.08534L27.8995 0.824247L29.6746 9.72064L28.4154 9.98173L27.637 6.08003L25.1686 6.59188L25.9471 10.4936L24.688 10.7547L22.913 1.85828L24.1721 1.59719L24.9277 5.38451L27.3961 4.87266L26.6404 1.08534Z" fill="#249D6A"/>
<path d="M30.4852 9.72762L29.4663 0.708677L30.7175 0.561771L31.1629 4.50434C31.2657 5.41482 31.3174 6.2878 31.3179 7.12327L31.3587 7.14459C31.5643 6.31973 31.7148 5.76245 31.8101 5.47275L33.3968 0.247185L34.6985 0.0943436L35.7174 9.11329L34.4662 9.26019L34.0223 5.33051C33.9243 4.46297 33.8627 3.5781 33.8376 2.67589L33.7968 2.65458C33.6246 3.39718 33.4765 3.97593 33.3527 4.39083L31.7743 9.57626L30.4852 9.72762Z" fill="#249D6A"/>
<path d="M39.5003 0.0375455L40.7847 0L41.0407 9.10076L39.7563 9.1383L39.6619 5.78062C39.2927 5.9298 38.892 6.01072 38.4596 6.02336C37.6458 6.04715 36.9987 5.81522 36.5183 5.32757C36.0377 4.83129 35.7845 4.12508 35.7587 3.20895L35.6727 0.149439L36.957 0.111893L37.0442 3.2103C37.0746 4.29064 37.5815 4.81643 38.5649 4.78768C38.9548 4.77628 39.3091 4.70106 39.6276 4.562L39.5003 0.0375455Z" fill="#249D6A"/>
<path d="M42.2542 9.21602L42.7326 0.150569L44.0156 0.220943L43.8249 3.83417L44.9174 3.89409C45.7643 3.94055 46.4077 4.22261 46.8475 4.74028C47.2873 5.25795 47.4851 5.93553 47.4409 6.773C47.394 7.66228 47.1296 8.32749 46.6476 8.76863C46.1662 9.20113 45.4935 9.39369 44.6297 9.34632L42.2542 9.21602ZM43.6008 8.08198L44.6297 8.13842C45.0786 8.16304 45.4324 8.0569 45.6912 7.81999C45.9505 7.57445 46.0933 7.20129 46.1198 6.70054C46.1457 6.20841 46.0425 5.83043 45.8102 5.56658C45.5778 5.30273 45.2372 5.15849 44.7883 5.13387L43.7593 5.07743L43.6008 8.08198Z" fill="#249D6A"/>
<path d="M46.9612 9.57931L49.3194 6.3672C48.8374 6.12721 48.4874 5.76125 48.2694 5.2693C48.0609 4.76992 48.0004 4.18599 48.0879 3.5175C48.2078 2.60047 48.5321 1.92056 49.0606 1.47778C49.5891 1.03499 50.2695 0.870175 51.1018 0.983332L53.3716 1.29194L52.1944 10.2908L50.9207 10.1177L51.3462 6.86521L50.5644 6.75891L48.3735 9.77133L46.9612 9.57931ZM50.5098 5.50849L51.506 5.64393L51.9365 2.35291L50.9529 2.21918C50.0534 2.09688 49.5325 2.57995 49.3901 3.66838C49.3206 4.19975 49.3802 4.62655 49.5691 4.94881C49.7591 5.26249 50.0727 5.44905 50.5098 5.50849Z" fill="#249D6A"/>
<path d="M61.0619 6.9862C61.869 7.22235 62.43 7.64287 62.745 8.24777C63.0681 8.85506 63.1163 9.56177 62.8893 10.3679C62.646 11.2322 62.2358 11.8273 61.6587 12.1532C61.0922 12.4732 60.3972 12.5127 59.5739 12.2718L57.2261 11.5849L59.6828 2.8586L64.1338 4.16097L63.8004 5.34525L60.5844 4.40425L59.9492 6.66061L61.0619 6.9862ZM59.8374 11.0536C60.2695 11.18 60.6417 11.1585 60.9541 10.9891C61.2689 10.8113 61.4941 10.4814 61.6298 9.99938C61.7632 9.52567 61.7386 9.12718 61.5561 8.80392C61.3817 8.48304 61.0826 8.26058 60.6587 8.13655L59.6193 7.83242L58.798 10.7495L59.8374 11.0536Z" fill="#249D6A"/>
<path d="M66.3144 14.7622L66.5634 12.9013L64.3654 12.0437L63.344 13.6033L62.0846 13.1119L67.3586 5.4489L68.6537 5.95417L67.5619 15.2489L66.3144 14.7622ZM65.0542 11.0071L66.7413 11.6654L67.0734 9.18423C67.1667 8.57261 67.2911 7.9268 67.4465 7.2468L67.4109 7.23289C67.0199 7.95986 66.6896 8.52532 66.4199 8.92928L65.0542 11.0071Z" fill="#249D6A"/>
<path d="M73.324 12.9652C74.1241 13.6833 74.2762 14.5684 73.7803 15.6205C73.4314 16.3609 72.9209 16.835 72.2489 17.043C71.5846 17.2548 70.8893 17.1828 70.163 16.8271C69.4215 16.4638 68.9354 15.938 68.7048 15.2494C68.4855 14.5569 68.5257 13.8427 68.8254 13.107L69.995 13.6799C69.8343 14.0808 69.808 14.466 69.9161 14.8356C70.0242 15.2051 70.2808 15.4891 70.686 15.6875C71.0759 15.8785 71.4482 15.917 71.803 15.803C72.1615 15.6813 72.4399 15.41 72.6383 14.9891C72.844 14.5527 72.872 14.1539 72.7222 13.7928C72.5725 13.4317 72.2798 13.1444 71.8441 12.931L71.2363 12.6333L71.7322 11.5812L72.2367 11.8283C73.1235 12.2627 73.7689 12.0513 74.1729 11.194C74.3492 10.8199 74.3876 10.479 74.288 10.1712C74.1961 9.86717 73.9743 9.62903 73.6226 9.45677C72.8658 9.08606 72.244 9.3474 71.757 10.2408L70.6104 9.67911C71.0122 8.9263 71.5222 8.42312 72.1404 8.16957C72.7586 7.91602 73.4308 7.96711 74.1571 8.32285C74.8527 8.66361 75.3078 9.14551 75.5222 9.76856C75.7403 10.3838 75.6786 11.0538 75.337 11.7786C74.922 12.6592 74.251 13.0548 73.324 12.9652Z" fill="#249D6A"/>
<path d="M76.2747 20.1518L76.8199 18.3579L74.7897 17.1442L73.5312 18.5118L72.3679 17.8164L78.8038 11.1395L80 11.8546L77.427 20.8407L76.2747 20.1518ZM75.636 16.2369L77.1943 17.1684L77.9212 14.7765C78.1118 14.1888 78.3384 13.5725 78.6011 12.9277L78.5682 12.908C78.0656 13.5598 77.6487 14.0623 77.3176 14.4157L75.636 16.2369Z" fill="#249D6A"/>
<path d="M3.96694 30.6667C3.96694 31.7712 3.07891 32.6667 1.98347 32.6667C0.88803 32.6667 8.81913e-09 31.7712 8.81913e-09 30.6667C8.81913e-09 29.5621 0.88803 28.6667 1.98347 28.6667C3.07891 28.6667 3.96694 29.5621 3.96694 30.6667Z" fill="#249D6A"/>
<path d="M80 30.6667C80 31.7712 79.112 32.6667 78.0165 32.6667C76.9211 32.6667 76.0331 31.7712 76.0331 30.6667C76.0331 29.5621 76.9211 28.6667 78.0165 28.6667C79.112 28.6667 80 29.5621 80 30.6667Z" fill="#249D6A"/>
</svg>
